
            <!DOCTYPE svg PUBLIC "-//W3C//DTD SVG 1.1//EN" "http://www.w3.org/Graphics/SVG/1.1/DTD/svg11.dtd">
            <svg xmlns="http://www.w3.org/2000/svg" xmlns:xlink="http://www.w3.org/1999/xlink" width="12" height="12" viewBox="0 0 24 24" fill="#cf222e">
              <path fill-rule="evenodd"
                    d="M 1 12
                       C 1 5.925 5.925 1 12 1
                       s 11 4.925 11 11 -4.925 11 -11 11
                       S 1 18.075 1 12
                       z
                       m 8.036 -4.024
                       a 0.75 0.75 0 0 0 -1.06 1.06
                       L 10.939 12
                       l -2.963 2.963
                       a 0.75 0.75 0 1 0 1.06 1.06
                       L 12 13.06
                       l 2.963 2.964
                       a 0.75 0.75 0 0 0 1.06 -1.06
                       L 13.061 12
                       l 2.963 -2.964
                       a 0.75 0.75 0 1 0 -1.06 -1.06
                       L 12 10.939 9.036 7.976
                       z" />
            </svg>