<svg width="13" height="13" xmlns="http://www.w3.org/2000/svg" xmlns:xlink="http://www.w3.org/1999/xlink" xml:space="preserve" overflow="hidden"><g transform="translate(-649 -353)"><g><g><g><g><path d="M650.5 360C650.5 356.962 652.963 354.5 656 354.5 659.037 354.5 661.5 356.962 661.5 360 661.5 363.038 659.037 365.5 656 365.5 652.963 365.5 650.5 363.038 650.5 360ZM654.518 357.988C654.366 357.847 654.129 357.855 653.988 358.007 653.854 358.151 653.854 358.374 653.988 358.518L655.469 360 653.988 361.482C653.836 361.623 653.828 361.86 653.969 362.012 654.11 362.163 654.348 362.171 654.499 362.03 654.506 362.024 654.512 362.018 654.518 362.012L656 360.53 657.482 362.012C657.633 362.153 657.87 362.145 658.011 361.993 658.146 361.849 658.146 361.626 658.011 361.482L656.531 360 658.012 358.518C658.164 358.377 658.172 358.14 658.031 357.988 657.89 357.836 657.652 357.828 657.501 357.969 657.494 357.975 657.488 357.982 657.482 357.988L656 359.47 654.518 357.988Z" fill="#E97132" fill-rule="evenodd" fill-opacity="1"/></g></g></g></g></g></svg>